<mxfile host="app.diagrams.net" modified="2024-07-17T09:44:40.788Z" agent="Mozilla/5.0 (Windows NT 10.0; Win64; x64) AppleWebKit/537.36 (KHTML, like Gecko) Chrome/126.0.0.0 Safari/537.36" version="24.6.5" etag="v084agBLvXeokE2QPmG0" type="github">
  <diagram name="PÃ¡gina-1" id="Dr3p4S7zPRtVfybd-5ty">
    <mxGraphModel>
      <root>
        <mxCell id="0" />
        <mxCell id="1" parent="0" />
      </root>
    </mxGraphModel>
  </diagram>
</mxfile>
